<?xml version="1.0" encoding="utf-8"?>
<!-- Generator: Adobe Illustrator 20.1.0, SVG Export Plug-In . SVG Version: 6.00 Build 0)  -->
<svg version="1.1" id="Слой_1" xmlns="http://www.w3.org/2000/svg" xmlns:xlink="http://www.w3.org/1999/xlink" x="0px" y="0px"
	 viewBox="0 0 103.2 103.2" style="enable-background:new 0 0 103.2 103.2;" xml:space="preserve">
<style type="text/css">
	.st0{fill:#E8E3E0;}
</style>
<g>
	<path class="st0" d="M71.7,103.2H31.5c-7.7,0-9.2-6.1-9.2-13.8l-4.8-57.2h68.1l-4.3,57.7C81.3,97.5,79.4,103.2,71.7,103.2z"/>
	<path class="st0" d="M88.1,7.9H60.5c0-4.3-3.6-7.9-7.9-7.9s-7.9,3.7-7.9,7.9H15.1c-2.8,0-5,2.2-5,5v4.6c0,2.9,2.4,5.3,5.3,5.3h72.7
		c2.8,0,5-2.2,5-5v-4.9C93.1,10.2,90.8,7.9,88.1,7.9z"/>
</g>
</svg>
