<?xml version="1.0" encoding="utf-8"?>
<!-- Generator: Adobe Illustrator 20.1.0, SVG Export Plug-In . SVG Version: 6.00 Build 0)  -->
<svg version="1.1" id="Слой_1" xmlns="http://www.w3.org/2000/svg" xmlns:xlink="http://www.w3.org/1999/xlink" x="0px" y="0px"
	 viewBox="0 0 103.2 103.2" style="enable-background:new 0 0 103.2 103.2;" xml:space="preserve">
<style type="text/css">
	.st0{fill:#B4A8A2;}
</style>
<g>
	<path class="st0" d="M75.1,40.1c-2,0-5,0-7,0c0-2,0-5,0-8c0-7-12-7-12,0c0,3,0,6,0,8c-3,0-5,0-8,0c-8,0-8,12,0,12c3,0,5,0,8,0
		c0,3,0,5,0,8c0,8,12,8,12,0c0-3,0-5,0-8c2,0,5,0,7,0C83.1,52.1,83.1,40.1,75.1,40.1z"/>
	<path class="st0" d="M101.8,44.1c-0.6-16.4-10.7-30.7-26.1-36.4C60.2,1.9,42,7,31.7,19.8c-10.4,12.8-11.9,31-3.5,45.3
		c0.2,0.3,0.4,0.6,0.6,0.9c-8.6,7.3-17.2,14.6-25.9,21.9c-5.9,5,2.6,13.5,8.5,8.5c8.4-7.1,16.8-14.3,25.2-21.4
		c9.1,7.6,21.3,10.9,33.3,8.7c18.3-3.4,31.1-19.8,31.8-38c0-0.3,0-0.5,0-0.8C101.8,44.6,101.8,44.3,101.8,44.1z M71.9,70.7
		c-10.9,4-23.4,0.7-30.9-8.3c-16.2-19.4,1.6-49.5,26.4-44.7c13.1,2.5,22.1,14,22.4,27.1C89.6,56.3,82.7,66.7,71.9,70.7z"/>
</g>
</svg>
