<?xml version="1.0" encoding="utf-8"?>
<!-- Generator: Adobe Illustrator 20.1.0, SVG Export Plug-In . SVG Version: 6.00 Build 0)  -->
<svg version="1.1" id="Слой_1" xmlns="http://www.w3.org/2000/svg" xmlns:xlink="http://www.w3.org/1999/xlink" x="0px" y="0px"
	 viewBox="0 0 103.2 103.2" style="enable-background:new 0 0 103.2 103.2;" xml:space="preserve">
<style type="text/css">
	.st0{fill:#E8E3E0;}
</style>
<g>
	<path class="st0" d="M87.7,36.1H67.1V15.4c0-8.5-6.9-15.3-15.5-15.3h-0.1c-8.5,0-15.5,6.8-15.5,15.3v20.7H15.4
		c-8.5,0-15.4,6.9-15.4,15.4v0.1c0,8.5,6.8,15.5,15.4,15.5h20.6v20.6c0,8.5,6.9,15.4,15.5,15.4h0.1c8.5,0,15.5-6.9,15.5-15.4V67.1
		h20.6c8.5,0,15.4-7,15.4-15.5v0C103.1,43.1,96.2,36.1,87.7,36.1z"/>
</g>
</svg>
