<?xml version="1.0" encoding="utf-8"?>
<!-- Generator: Adobe Illustrator 20.1.0, SVG Export Plug-In . SVG Version: 6.00 Build 0)  -->
<svg version="1.1" id="Слой_1" xmlns="http://www.w3.org/2000/svg" xmlns:xlink="http://www.w3.org/1999/xlink" x="0px" y="0px"
	 viewBox="0 0 103.2 103.2" style="enable-background:new 0 0 103.2 103.2;" xml:space="preserve">
<style type="text/css">
	.st0{fill:#E8E3E0;}
</style>
<g>
	<path class="st0" d="M95.4,69.2L77.8,51.6L95.4,34c7.2-7.2,7.2-19,0-26.2l0,0c-7.2-7.2-19-7.2-26.2,0L51.6,25.3L34,7.7
		c-7.2-7.2-19-7.2-26.2,0l0,0c-7.2,7.2-7.2,19,0,26.2l17.6,17.6L7.7,69.2c-7.2,7.2-7.2,19,0,26.2l0,0c7.2,7.2,19,7.2,26.2,0
		l17.6-17.6l17.6,17.6c7.2,7.2,19,7.2,26.2,0l0,0C102.7,88.2,102.7,76.4,95.4,69.2z"/>
</g>
</svg>
