<?xml version="1.0" encoding="utf-8"?>
<!-- Generator: Adobe Illustrator 20.1.0, SVG Export Plug-In . SVG Version: 6.00 Build 0)  -->
<svg version="1.1" id="Слой_1" xmlns="http://www.w3.org/2000/svg" xmlns:xlink="http://www.w3.org/1999/xlink" x="0px" y="0px"
	 viewBox="0 0 103.2 103.2" style="enable-background:new 0 0 103.2 103.2;" xml:space="preserve">
<style type="text/css">
	.st0{fill:#B4A8A2;}
</style>
<g>
	<path class="st0" d="M55.1,40.1c-9,0-19,0-28,0c-7,0-7,12,0,12c9,0,19,0,28,0C62.1,52.1,62.1,40.1,55.1,40.1z"/>
	<path class="st0" d="M100,87.8c-8.6-7.3-17.3-14.6-25.9-21.9c7.7-12.4,8.2-28.4,0.6-41.2C66.2,10.2,49.4,3,33,6
		C14.7,9.4,1.9,25.8,1.2,44c0,0.3,0,0.5,0,0.8c0,0.3,0,0.5,0,0.8C1.8,61.9,11.8,76.2,27.3,82c13.2,4.9,28.5,1.9,39.1-7.1
		c8.4,7.1,16.8,14.2,25.2,21.4C97.4,101.3,105.9,92.8,100,87.8z M35.5,71.9c-13.1-2.5-22.1-14-22.4-27.1C13.4,33.4,20.2,23,31.1,19
		c10.9-4,23.4-0.7,30.9,8.3C78.1,46.6,60.3,76.8,35.5,71.9z"/>
</g>
</svg>
