<?xml version="1.0" encoding="utf-8"?>
<!-- Generator: Adobe Illustrator 20.1.0, SVG Export Plug-In . SVG Version: 6.00 Build 0)  -->
<svg version="1.1" id="Слой_1" xmlns="http://www.w3.org/2000/svg" xmlns:xlink="http://www.w3.org/1999/xlink" x="0px" y="0px"
	 viewBox="0 0 103.2 103.2" style="enable-background:new 0 0 103.2 103.2;" xml:space="preserve">
<style type="text/css">
	.st0{fill:#E8E3E0;}
</style>
<g>
	<path class="st0" d="M88,66.2L73.4,51.6L88,36.9c6-6,6-15.8,0-21.8l0,0c-6-6-15.8-6-21.8,0L51.6,29.8L36.9,15.1c-6-6-15.8-6-21.8,0
		l0,0c-6,6-6,15.8,0,21.8l14.6,14.6L15.1,66.2c-6,6-6,15.8,0,21.8l0,0c6,6,15.8,6,21.8,0l14.6-14.6L66.2,88c6,6,15.8,6,21.8,0l0,0
		C94.1,82,94.1,72.3,88,66.2z"/>
</g>
</svg>
